# MagicaVoxel @ Ephtracy

# group
o 

# material
mtllib Concrete Tiles-5.mtl
usemtl palette

# normals
vn -1 0 0
vn 1 0 0
vn 0 0 1
vn 0 0 -1
vn 0 -1 0
vn 0 1 0

# texcoords
vt 0.970703 0.5
vt 0.990234 0.5

# verts
v -46.8 0.1 -5.7
v -46.8 0.1 -17.7
v -46.8 1.8 -5.7
v -46.8 1.8 -17.7
v -46.1 1.8 -5.7
v -46.1 1.8 -17.7
v -46.1 2.7 -5.7
v -46.1 2.7 -17.7
v -45.8 0.6 -5.7
v -45.8 0.6 -17.7
v -45.8 1.1 -5.7
v -45.8 1.1 -17.7
v -45.4 2.7 -5.7
v -45.4 2.7 -17.7
v -45.4 4.1 -5.7
v -45.4 4.1 -17.7
v -44.7 4.1 -5.7
v -44.7 4.1 -17.7
v -44.7 5.2 -5.7
v -44.7 5.2 -17.7
v -43.9 5.2 -10.4
v -43.9 5.2 -10.8
v -43.9 5.2 -12.6
v -43.9 5.2 -13
v -43.9 5.5 -10.8
v -43.9 5.5 -11
v -43.9 5.5 -12.4
v -43.9 5.5 -12.6
v -43.9 5.8 -10.4
v -43.9 5.8 -10.6
v -43.9 5.8 -11
v -43.9 5.8 -11.3
v -43.9 5.8 -12.1
v -43.9 5.8 -12.4
v -43.9 5.8 -12.8
v -43.9 5.8 -13
v -43.9 6 -11.3
v -43.9 6 -12.1
v -43.9 6.2 -10.6
v -43.9 6.2 -11
v -43.9 6.2 -12.4
v -43.9 6.2 -12.8
v -43.9 6.4 -11
v -43.9 6.4 -12.4
v -43.3 0.3 -5.7
v -43.3 0.3 -6
v -43.3 3.1 -5.7
v -43.3 3.1 -6
v -42.9 0.1 -5.7
v -42.9 0.1 -17.7
v -42.9 0.3 -5.7
v -42.9 0.3 -17.7
v -41.1 0.6 -5.7
v -41.1 0.6 -17.7
v -41.1 1.1 -5.7
v -41.1 1.1 -17.7
v -46.3 0.6 -5.7
v -46.3 0.6 -17.7
v -46.3 1.1 -5.7
v -46.3 1.1 -17.7
v -44.5 0.1 -5.7
v -44.5 0.1 -17.7
v -44.5 0.3 -5.7
v -44.5 0.3 -17.7
v -44.1 0.3 -5.7
v -44.1 0.3 -6
v -44.1 3.1 -5.7
v -44.1 3.1 -6
v -43.5 5.2 -10.4
v -43.5 5.2 -10.8
v -43.5 5.2 -12.6
v -43.5 5.2 -13
v -43.5 5.5 -10.8
v -43.5 5.5 -11
v -43.5 5.5 -12.4
v -43.5 5.5 -12.6
v -43.5 5.8 -10.4
v -43.5 5.8 -10.6
v -43.5 5.8 -11
v -43.5 5.8 -11.3
v -43.5 5.8 -12.1
v -43.5 5.8 -12.4
v -43.5 5.8 -12.8
v -43.5 5.8 -13
v -43.5 6 -11.3
v -43.5 6 -12.1
v -43.5 6.2 -10.6
v -43.5 6.2 -11
v -43.5 6.2 -12.4
v -43.5 6.2 -12.8
v -43.5 6.4 -11
v -43.5 6.4 -12.4
v -42.7 4.1 -5.7
v -42.7 4.1 -17.7
v -42.7 5.2 -5.7
v -42.7 5.2 -17.7
v -42 2.7 -5.7
v -42 2.7 -17.7
v -42 4.1 -5.7
v -42 4.1 -17.7
v -41.6 0.6 -5.7
v -41.6 0.6 -17.7
v -41.6 1.1 -5.7
v -41.6 1.1 -17.7
v -41.3 1.8 -5.7
v -41.3 1.8 -17.7
v -41.3 2.7 -5.7
v -41.3 2.7 -17.7
v -40.6 0.1 -5.7
v -40.6 0.1 -17.7
v -40.6 1.8 -5.7
v -40.6 1.8 -17.7
v -46.8 0.1 -5.7
v -46.8 1.8 -5.7
v -46.3 0.6 -5.7
v -46.3 1.1 -5.7
v -46.1 1.8 -5.7
v -46.1 2.7 -5.7
v -45.8 0.6 -5.7
v -45.8 1.1 -5.7
v -45.4 2.7 -5.7
v -45.4 4.1 -5.7
v -44.7 4.1 -5.7
v -44.7 5.2 -5.7
v -44.5 0.1 -5.7
v -44.5 0.3 -5.7
v -44.1 0.3 -5.7
v -44.1 3.1 -5.7
v -43.3 0.3 -5.7
v -43.3 3.1 -5.7
v -42.9 0.1 -5.7
v -42.9 0.3 -5.7
v -42.7 4.1 -5.7
v -42.7 5.2 -5.7
v -42 2.7 -5.7
v -42 4.1 -5.7
v -41.6 0.6 -5.7
v -41.6 1.1 -5.7
v -41.3 1.8 -5.7
v -41.3 2.7 -5.7
v -41.1 0.6 -5.7
v -41.1 1.1 -5.7
v -40.6 0.1 -5.7
v -40.6 1.8 -5.7
v -44.1 0.3 -6
v -44.1 3.1 -6
v -43.3 0.3 -6
v -43.3 3.1 -6
v -43.9 5.2 -10.4
v -43.9 5.8 -10.4
v -43.5 5.2 -10.4
v -43.5 5.8 -10.4
v -43.9 5.8 -10.6
v -43.9 6.2 -10.6
v -43.5 5.8 -10.6
v -43.5 6.2 -10.6
v -43.9 6.2 -11
v -43.9 6.4 -11
v -43.5 6.2 -11
v -43.5 6.4 -11
v -43.9 5.8 -12.1
v -43.9 6 -12.1
v -43.5 5.8 -12.1
v -43.5 6 -12.1
v -43.9 5.5 -12.4
v -43.9 5.8 -12.4
v -43.5 5.5 -12.4
v -43.5 5.8 -12.4
v -43.9 5.2 -12.6
v -43.9 5.5 -12.6
v -43.5 5.2 -12.6
v -43.5 5.5 -12.6
v -43.9 5.2 -10.8
v -43.9 5.5 -10.8
v -43.5 5.2 -10.8
v -43.5 5.5 -10.8
v -43.9 5.5 -11
v -43.9 5.8 -11
v -43.5 5.5 -11
v -43.5 5.8 -11
v -43.9 5.8 -11.3
v -43.9 6 -11.3
v -43.5 5.8 -11.3
v -43.5 6 -11.3
v -43.9 6.2 -12.4
v -43.9 6.4 -12.4
v -43.5 6.2 -12.4
v -43.5 6.4 -12.4
v -43.9 5.8 -12.8
v -43.9 6.2 -12.8
v -43.5 5.8 -12.8
v -43.5 6.2 -12.8
v -43.9 5.2 -13
v -43.9 5.8 -13
v -43.5 5.2 -13
v -43.5 5.8 -13
v -46.8 0.1 -17.7
v -46.8 1.8 -17.7
v -46.3 0.6 -17.7
v -46.3 1.1 -17.7
v -46.1 1.8 -17.7
v -46.1 2.7 -17.7
v -45.8 0.6 -17.7
v -45.8 1.1 -17.7
v -45.4 2.7 -17.7
v -45.4 4.1 -17.7
v -44.7 4.1 -17.7
v -44.7 5.2 -17.7
v -44.5 0.1 -17.7
v -44.5 0.3 -17.7
v -42.9 0.1 -17.7
v -42.9 0.3 -17.7
v -42.7 4.1 -17.7
v -42.7 5.2 -17.7
v -42 2.7 -17.7
v -42 4.1 -17.7
v -41.6 0.6 -17.7
v -41.6 1.1 -17.7
v -41.3 1.8 -17.7
v -41.3 2.7 -17.7
v -41.1 0.6 -17.7
v -41.1 1.1 -17.7
v -40.6 0.1 -17.7
v -40.6 1.8 -17.7
v -46.8 0.1 -5.7
v -44.5 0.1 -5.7
v -42.9 0.1 -5.7
v -40.6 0.1 -5.7
v -46.8 0.1 -17.7
v -44.5 0.1 -17.7
v -42.9 0.1 -17.7
v -40.6 0.1 -17.7
v -44.5 0.3 -5.7
v -44.1 0.3 -5.7
v -43.3 0.3 -5.7
v -42.9 0.3 -5.7
v -44.1 0.3 -6
v -43.3 0.3 -6
v -44.5 0.3 -17.7
v -42.9 0.3 -17.7
v -46.3 1.1 -5.7
v -45.8 1.1 -5.7
v -41.6 1.1 -5.7
v -41.1 1.1 -5.7
v -46.3 1.1 -17.7
v -45.8 1.1 -17.7
v -41.6 1.1 -17.7
v -41.1 1.1 -17.7
v -44.1 3.1 -5.7
v -43.3 3.1 -5.7
v -44.1 3.1 -6
v -43.3 3.1 -6
v -43.9 5.5 -10.8
v -43.5 5.5 -10.8
v -43.9 5.5 -11
v -43.5 5.5 -11
v -43.9 5.5 -12.4
v -43.5 5.5 -12.4
v -43.9 5.5 -12.6
v -43.5 5.5 -12.6
v -43.9 5.8 -11
v -43.5 5.8 -11
v -43.9 5.8 -11.3
v -43.5 5.8 -11.3
v -43.9 5.8 -12.1
v -43.5 5.8 -12.1
v -43.9 5.8 -12.4
v -43.5 5.8 -12.4
v -43.9 6 -11.3
v -43.5 6 -11.3
v -43.9 6 -12.1
v -43.5 6 -12.1
v -46.3 0.6 -5.7
v -45.8 0.6 -5.7
v -41.6 0.6 -5.7
v -41.1 0.6 -5.7
v -46.3 0.6 -17.7
v -45.8 0.6 -17.7
v -41.6 0.6 -17.7
v -41.1 0.6 -17.7
v -46.8 1.8 -5.7
v -46.1 1.8 -5.7
v -41.3 1.8 -5.7
v -40.6 1.8 -5.7
v -46.8 1.8 -17.7
v -46.1 1.8 -17.7
v -41.3 1.8 -17.7
v -40.6 1.8 -17.7
v -46.1 2.7 -5.7
v -45.4 2.7 -5.7
v -42 2.7 -5.7
v -41.3 2.7 -5.7
v -46.1 2.7 -17.7
v -45.4 2.7 -17.7
v -42 2.7 -17.7
v -41.3 2.7 -17.7
v -45.4 4.1 -5.7
v -44.7 4.1 -5.7
v -42.7 4.1 -5.7
v -42 4.1 -5.7
v -45.4 4.1 -17.7
v -44.7 4.1 -17.7
v -42.7 4.1 -17.7
v -42 4.1 -17.7
v -44.7 5.2 -5.7
v -42.7 5.2 -5.7
v -43.9 5.2 -10.4
v -43.5 5.2 -10.4
v -43.9 5.2 -10.8
v -43.5 5.2 -10.8
v -43.9 5.2 -12.6
v -43.5 5.2 -12.6
v -43.9 5.2 -13
v -43.5 5.2 -13
v -44.7 5.2 -17.7
v -42.7 5.2 -17.7
v -43.9 5.8 -10.4
v -43.5 5.8 -10.4
v -43.9 5.8 -10.6
v -43.5 5.8 -10.6
v -43.9 5.8 -12.8
v -43.5 5.8 -12.8
v -43.9 5.8 -13
v -43.5 5.8 -13
v -43.9 6.2 -10.6
v -43.5 6.2 -10.6
v -43.9 6.2 -11
v -43.5 6.2 -11
v -43.9 6.2 -12.4
v -43.5 6.2 -12.4
v -43.9 6.2 -12.8
v -43.5 6.2 -12.8
v -43.9 6.4 -11
v -43.5 6.4 -11
v -43.9 6.4 -12.4
v -43.5 6.4 -12.4

# faces
f 3/1/1 2/1/1 1/1/1
f 4/1/1 2/1/1 3/1/1
f 7/1/1 6/1/1 5/1/1
f 8/1/1 6/1/1 7/1/1
f 11/1/1 10/1/1 9/1/1
f 12/1/1 10/1/1 11/1/1
f 15/1/1 14/1/1 13/1/1
f 16/1/1 14/1/1 15/1/1
f 19/1/1 18/1/1 17/1/1
f 20/1/1 18/1/1 19/1/1
f 25/2/1 22/2/1 21/2/1
f 28/2/1 24/2/1 23/2/1
f 29/2/1 26/2/1 25/2/1
f 29/2/1 25/2/1 21/2/1
f 30/2/1 26/2/1 29/2/1
f 31/2/1 26/2/1 30/2/1
f 34/2/1 28/2/1 27/2/1
f 35/2/1 24/2/1 28/2/1
f 35/2/1 28/2/1 34/2/1
f 36/2/1 24/2/1 35/2/1
f 37/2/1 32/2/1 31/2/1
f 37/2/1 31/2/1 30/2/1
f 38/2/1 34/2/1 33/2/1
f 38/2/1 35/2/1 34/2/1
f 39/2/1 37/2/1 30/2/1
f 39/2/1 38/2/1 37/2/1
f 40/2/1 38/2/1 39/2/1
f 41/2/1 35/2/1 38/2/1
f 41/2/1 38/2/1 40/2/1
f 42/2/1 35/2/1 41/2/1
f 43/2/1 41/2/1 40/2/1
f 44/2/1 41/2/1 43/2/1
f 47/1/1 46/1/1 45/1/1
f 48/1/1 46/1/1 47/1/1
f 51/1/1 50/1/1 49/1/1
f 52/1/1 50/1/1 51/1/1
f 55/1/1 54/1/1 53/1/1
f 56/1/1 54/1/1 55/1/1
f 57/1/2 58/1/2 59/1/2
f 59/1/2 58/1/2 60/1/2
f 61/1/2 62/1/2 63/1/2
f 63/1/2 62/1/2 64/1/2
f 65/1/2 66/1/2 67/1/2
f 67/1/2 66/1/2 68/1/2
f 69/2/2 70/2/2 73/2/2
f 71/2/2 72/2/2 76/2/2
f 73/2/2 74/2/2 77/2/2
f 69/2/2 73/2/2 77/2/2
f 77/2/2 74/2/2 78/2/2
f 78/2/2 74/2/2 79/2/2
f 75/2/2 76/2/2 82/2/2
f 76/2/2 72/2/2 83/2/2
f 82/2/2 76/2/2 83/2/2
f 83/2/2 72/2/2 84/2/2
f 79/2/2 80/2/2 85/2/2
f 78/2/2 79/2/2 85/2/2
f 81/2/2 82/2/2 86/2/2
f 82/2/2 83/2/2 86/2/2
f 78/2/2 85/2/2 87/2/2
f 85/2/2 86/2/2 87/2/2
f 87/2/2 86/2/2 88/2/2
f 86/2/2 83/2/2 89/2/2
f 88/2/2 86/2/2 89/2/2
f 89/2/2 83/2/2 90/2/2
f 88/2/2 89/2/2 91/2/2
f 91/2/2 89/2/2 92/2/2
f 93/1/2 94/1/2 95/1/2
f 95/1/2 94/1/2 96/1/2
f 97/1/2 98/1/2 99/1/2
f 99/1/2 98/1/2 100/1/2
f 101/1/2 102/1/2 103/1/2
f 103/1/2 102/1/2 104/1/2
f 105/1/2 106/1/2 107/1/2
f 107/1/2 106/1/2 108/1/2
f 109/1/2 110/1/2 111/1/2
f 111/1/2 110/1/2 112/1/2
f 115/1/3 114/1/3 113/1/3
f 116/1/3 114/1/3 115/1/3
f 117/1/3 114/1/3 116/1/3
f 119/1/3 115/1/3 113/1/3
f 120/1/3 118/1/3 117/1/3
f 120/1/3 117/1/3 116/1/3
f 121/1/3 118/1/3 120/1/3
f 121/1/3 120/1/3 119/1/3
f 123/1/3 122/1/3 121/1/3
f 125/1/3 119/1/3 113/1/3
f 125/1/3 124/1/3 123/1/3
f 125/1/3 123/1/3 121/1/3
f 125/1/3 121/1/3 119/1/3
f 126/1/3 124/1/3 125/1/3
f 127/1/3 124/1/3 126/1/3
f 128/1/3 124/1/3 127/1/3
f 130/1/3 124/1/3 128/1/3
f 132/1/3 130/1/3 129/1/3
f 133/1/3 124/1/3 130/1/3
f 133/1/3 132/1/3 131/1/3
f 133/1/3 130/1/3 132/1/3
f 134/1/3 124/1/3 133/1/3
f 135/1/3 133/1/3 131/1/3
f 136/1/3 133/1/3 135/1/3
f 137/1/3 135/1/3 131/1/3
f 138/1/3 135/1/3 137/1/3
f 139/1/3 135/1/3 138/1/3
f 140/1/3 135/1/3 139/1/3
f 141/1/3 137/1/3 131/1/3
f 142/1/3 139/1/3 138/1/3
f 143/1/3 141/1/3 131/1/3
f 143/1/3 142/1/3 141/1/3
f 144/1/3 139/1/3 142/1/3
f 144/1/3 142/1/3 143/1/3
f 147/1/3 146/1/3 145/1/3
f 148/1/3 146/1/3 147/1/3
f 151/2/3 150/2/3 149/2/3
f 152/2/3 150/2/3 151/2/3
f 155/2/3 154/2/3 153/2/3
f 156/2/3 154/2/3 155/2/3
f 159/2/3 158/2/3 157/2/3
f 160/2/3 158/2/3 159/2/3
f 163/2/3 162/2/3 161/2/3
f 164/2/3 162/2/3 163/2/3
f 167/2/3 166/2/3 165/2/3
f 168/2/3 166/2/3 167/2/3
f 171/2/3 170/2/3 169/2/3
f 172/2/3 170/2/3 171/2/3
f 173/2/4 174/2/4 175/2/4
f 175/2/4 174/2/4 176/2/4
f 177/2/4 178/2/4 179/2/4
f 179/2/4 178/2/4 180/2/4
f 181/2/4 182/2/4 183/2/4
f 183/2/4 182/2/4 184/2/4
f 185/2/4 186/2/4 187/2/4
f 187/2/4 186/2/4 188/2/4
f 189/2/4 190/2/4 191/2/4
f 191/2/4 190/2/4 192/2/4
f 193/2/4 194/2/4 195/2/4
f 195/2/4 194/2/4 196/2/4
f 197/1/4 198/1/4 199/1/4
f 199/1/4 198/1/4 200/1/4
f 200/1/4 198/1/4 201/1/4
f 197/1/4 199/1/4 203/1/4
f 201/1/4 202/1/4 204/1/4
f 200/1/4 201/1/4 204/1/4
f 204/1/4 202/1/4 205/1/4
f 203/1/4 204/1/4 205/1/4
f 205/1/4 206/1/4 207/1/4
f 197/1/4 203/1/4 209/1/4
f 207/1/4 208/1/4 209/1/4
f 205/1/4 207/1/4 209/1/4
f 203/1/4 205/1/4 209/1/4
f 209/1/4 208/1/4 210/1/4
f 210/1/4 208/1/4 212/1/4
f 212/1/4 208/1/4 213/1/4
f 211/1/4 212/1/4 213/1/4
f 213/1/4 208/1/4 214/1/4
f 211/1/4 213/1/4 215/1/4
f 215/1/4 213/1/4 216/1/4
f 211/1/4 215/1/4 217/1/4
f 217/1/4 215/1/4 218/1/4
f 218/1/4 215/1/4 219/1/4
f 219/1/4 215/1/4 220/1/4
f 211/1/4 217/1/4 221/1/4
f 218/1/4 219/1/4 222/1/4
f 211/1/4 221/1/4 223/1/4
f 221/1/4 222/1/4 223/1/4
f 222/1/4 219/1/4 224/1/4
f 223/1/4 222/1/4 224/1/4
f 229/1/5 226/1/5 225/1/5
f 230/1/5 226/1/5 229/1/5
f 231/1/5 228/1/5 227/1/5
f 232/1/5 228/1/5 231/1/5
f 237/1/5 234/1/5 233/1/5
f 238/1/5 236/1/5 235/1/5
f 239/1/5 237/1/5 233/1/5
f 239/1/5 238/1/5 237/1/5
f 240/1/5 236/1/5 238/1/5
f 240/1/5 238/1/5 239/1/5
f 245/1/5 242/1/5 241/1/5
f 246/1/5 242/1/5 245/1/5
f 247/1/5 244/1/5 243/1/5
f 248/1/5 244/1/5 247/1/5
f 251/1/5 250/1/5 249/1/5
f 252/1/5 250/1/5 251/1/5
f 255/2/5 254/2/5 253/2/5
f 256/2/5 254/2/5 255/2/5
f 259/2/5 258/2/5 257/2/5
f 260/2/5 258/2/5 259/2/5
f 263/2/5 262/2/5 261/2/5
f 264/2/5 262/2/5 263/2/5
f 267/2/5 266/2/5 265/2/5
f 268/2/5 266/2/5 267/2/5
f 271/2/5 270/2/5 269/2/5
f 272/2/5 270/2/5 271/2/5
f 273/1/6 274/1/6 277/1/6
f 277/1/6 274/1/6 278/1/6
f 275/1/6 276/1/6 279/1/6
f 279/1/6 276/1/6 280/1/6
f 281/1/6 282/1/6 285/1/6
f 285/1/6 282/1/6 286/1/6
f 283/1/6 284/1/6 287/1/6
f 287/1/6 284/1/6 288/1/6
f 289/1/6 290/1/6 293/1/6
f 293/1/6 290/1/6 294/1/6
f 291/1/6 292/1/6 295/1/6
f 295/1/6 292/1/6 296/1/6
f 297/1/6 298/1/6 301/1/6
f 301/1/6 298/1/6 302/1/6
f 299/1/6 300/1/6 303/1/6
f 303/1/6 300/1/6 304/1/6
f 305/1/6 306/1/6 307/1/6
f 307/1/6 306/1/6 308/1/6
f 305/1/6 307/1/6 309/1/6
f 308/1/6 306/1/6 310/1/6
f 305/1/6 309/1/6 311/1/6
f 309/1/6 310/1/6 311/1/6
f 310/1/6 306/1/6 312/1/6
f 311/1/6 310/1/6 312/1/6
f 305/1/6 311/1/6 313/1/6
f 312/1/6 306/1/6 314/1/6
f 305/1/6 313/1/6 315/1/6
f 313/1/6 314/1/6 315/1/6
f 314/1/6 306/1/6 316/1/6
f 315/1/6 314/1/6 316/1/6
f 317/2/6 318/2/6 319/2/6
f 319/2/6 318/2/6 320/2/6
f 321/2/6 322/2/6 323/2/6
f 323/2/6 322/2/6 324/2/6
f 325/2/6 326/2/6 327/2/6
f 327/2/6 326/2/6 328/2/6
f 329/2/6 330/2/6 331/2/6
f 331/2/6 330/2/6 332/2/6
f 333/2/6 334/2/6 335/2/6
f 335/2/6 334/2/6 336/2/6
