# MagicaVoxel @ Ephtracy

# group
o 

# material
mtllib Concrete Tiles-12.mtl
usemtl palette

# normals
vn 0 -1 0
vn 0 1 0
vn 1 0 0
vn -1 0 0
vn 0 0 -1
vn 0 0 1

# texcoords
vt 0.962891 0.5
vt 0.994141 0.5

# verts
v 51.2 50 25.6
v 50 50 25.6
v 26.8 50 25.6
v 25.6 50 25.6
v 51.2 50 51.2
v 50 50 51.2
v 26.8 50 51.2
v 25.6 50 51.2
v 50 50.9 30.8
v 26.8 50.9 30.8
v 50 50.9 31.5
v 26.8 50.9 31.5
v 50 50.9 45.3
v 26.8 50.9 45.3
v 50 50.9 46
v 26.8 50.9 46
v 50 51.2 25.6
v 26.8 51.2 25.6
v 50 51.2 30.8
v 26.8 51.2 30.8
v 50 51.2 31.5
v 26.8 51.2 31.5
v 50 51.2 45.3
v 26.8 51.2 45.3
v 50 51.2 46
v 26.8 51.2 46
v 50 51.2 51.2
v 26.8 51.2 51.2
v 51.2 51.3 25.6
v 25.6 51.3 25.6
v 51.2 51.3 51.2
v 25.6 51.3 51.2
v 51.2 50 25.6
v 51.2 50 51.2
v 51.2 51.2 25.6
v 51.2 51.2 51.2
v 51.2 51.3 25.6
v 51.2 51.3 51.2
v 26.8 50 25.6
v 26.8 50 51.2
v 26.8 50.9 30.8
v 26.8 50.9 31.5
v 26.8 50.9 45.3
v 26.8 50.9 46
v 26.8 51.2 25.6
v 26.8 51.2 30.8
v 26.8 51.2 31.5
v 26.8 51.2 45.3
v 26.8 51.2 46
v 26.8 51.2 51.2
v 50 50 25.6
v 50 50 51.2
v 50 50.9 30.8
v 50 50.9 31.5
v 50 50.9 45.3
v 50 50.9 46
v 50 51.2 25.6
v 50 51.2 30.8
v 50 51.2 31.5
v 50 51.2 45.3
v 50 51.2 46
v 50 51.2 51.2
v 25.6 50 25.6
v 25.6 50 51.2
v 25.6 51.2 25.6
v 25.6 51.2 51.2
v 25.6 51.3 25.6
v 25.6 51.3 51.2
v 51.2 50 25.6
v 51.2 51.2 25.6
v 51.2 51.3 25.6
v 50 50 25.6
v 50 51.2 25.6
v 26.8 50 25.6
v 26.8 51.2 25.6
v 25.6 50 25.6
v 25.6 51.2 25.6
v 25.6 51.3 25.6
v 50 50.9 30.8
v 50 51.2 30.8
v 26.8 50.9 30.8
v 26.8 51.2 30.8
v 50 50.9 45.3
v 50 51.2 45.3
v 26.8 50.9 45.3
v 26.8 51.2 45.3
v 50 50.9 31.5
v 50 51.2 31.5
v 26.8 50.9 31.5
v 26.8 51.2 31.5
v 50 50.9 46
v 50 51.2 46
v 26.8 50.9 46
v 26.8 51.2 46
v 51.2 50 51.2
v 51.2 51.2 51.2
v 51.2 51.3 51.2
v 50 50 51.2
v 50 51.2 51.2
v 26.8 50 51.2
v 26.8 51.2 51.2
v 25.6 50 51.2
v 25.6 51.2 51.2
v 25.6 51.3 51.2

# faces
f 5/2/1 2/2/1 1/2/1
f 6/2/1 2/2/1 5/2/1
f 7/2/1 4/2/1 3/2/1
f 8/2/1 4/2/1 7/2/1
f 11/2/1 10/2/1 9/2/1
f 12/2/1 10/2/1 11/2/1
f 15/2/1 14/2/1 13/2/1
f 16/2/1 14/2/1 15/2/1
f 19/1/1 18/1/1 17/1/1
f 20/1/1 18/1/1 19/1/1
f 23/1/1 22/1/1 21/1/1
f 24/1/1 22/1/1 23/1/1
f 27/1/1 26/1/1 25/1/1
f 28/1/1 26/1/1 27/1/1
f 29/1/2 30/1/2 31/1/2
f 31/1/2 30/1/2 32/1/2
f 35/2/3 34/2/3 33/2/3
f 36/2/3 34/2/3 35/2/3
f 37/1/3 36/1/3 35/1/3
f 38/1/3 36/1/3 37/1/3
f 41/2/3 40/2/3 39/2/3
f 42/2/3 40/2/3 41/2/3
f 43/2/3 40/2/3 42/2/3
f 44/2/3 40/2/3 43/2/3
f 45/2/3 41/2/3 39/2/3
f 46/2/3 41/2/3 45/2/3
f 47/2/3 43/2/3 42/2/3
f 48/2/3 43/2/3 47/2/3
f 49/2/3 40/2/3 44/2/3
f 50/2/3 40/2/3 49/2/3
f 51/2/4 52/2/4 53/2/4
f 53/2/4 52/2/4 54/2/4
f 54/2/4 52/2/4 55/2/4
f 55/2/4 52/2/4 56/2/4
f 51/2/4 53/2/4 57/2/4
f 57/2/4 53/2/4 58/2/4
f 54/2/4 55/2/4 59/2/4
f 59/2/4 55/2/4 60/2/4
f 56/2/4 52/2/4 61/2/4
f 61/2/4 52/2/4 62/2/4
f 63/2/4 64/2/4 65/2/4
f 65/2/4 64/2/4 66/2/4
f 65/1/4 66/1/4 67/1/4
f 67/1/4 66/1/4 68/1/4
f 72/2/5 70/2/5 69/2/5
f 73/1/5 71/1/5 70/1/5
f 73/2/5 70/2/5 72/2/5
f 75/1/5 71/1/5 73/1/5
f 76/2/5 75/2/5 74/2/5
f 77/1/5 71/1/5 75/1/5
f 77/2/5 75/2/5 76/2/5
f 78/1/5 71/1/5 77/1/5
f 81/2/5 80/2/5 79/2/5
f 82/2/5 80/2/5 81/2/5
f 85/2/5 84/2/5 83/2/5
f 86/2/5 84/2/5 85/2/5
f 87/2/6 88/2/6 89/2/6
f 89/2/6 88/2/6 90/2/6
f 91/2/6 92/2/6 93/2/6
f 93/2/6 92/2/6 94/2/6
f 95/2/6 96/2/6 98/2/6
f 96/1/6 97/1/6 99/1/6
f 98/2/6 96/2/6 99/2/6
f 99/1/6 97/1/6 101/1/6
f 100/2/6 101/2/6 102/2/6
f 101/1/6 97/1/6 103/1/6
f 102/2/6 101/2/6 103/2/6
f 103/1/6 97/1/6 104/1/6
